<svg width="32" height="32" viewBox="0 0 32 32" fill="none" xmlns="http://www.w3.org/2000/svg">
<g clip-path="url(#clip0_3_83)">
<path d="M7.44655 23.998C6.77455 23.998 6.18055 23.866 5.66455 23.602C5.16055 23.338 4.77655 22.966 4.51255 22.486C4.24855 22.018 4.13455 21.454 4.17055 20.794L4.35055 18.058C4.38655 17.566 4.28455 17.194 4.04455 16.942C3.81655 16.69 3.42655 16.564 2.87455 16.564H0.732547V14.494H2.87455C3.42655 14.494 3.81655 14.368 4.04455 14.116C4.28455 13.864 4.38655 13.498 4.35055 13.018L4.17055 10.192C4.13455 9.544 4.24855 8.986 4.51255 8.518C4.77655 8.05 5.16055 7.69 5.66455 7.438C6.18055 7.186 6.77455 7.06 7.44655 7.06H8.68855V9.13H7.77055C7.33855 9.13 6.99655 9.232 6.74455 9.436C6.50455 9.64 6.39655 9.964 6.42055 10.408L6.60055 13.216C6.64855 13.924 6.43855 14.494 5.97055 14.926C5.50255 15.358 4.84855 15.574 4.00855 15.574V15.448C4.83655 15.448 5.48455 15.67 5.95255 16.114C6.43255 16.546 6.64855 17.122 6.60055 17.842L6.42055 20.65C6.40855 21.046 6.52255 21.358 6.76255 21.586C7.01455 21.802 7.35055 21.91 7.77055 21.91H8.68855V23.998H7.44655ZM14.9635 22.198C13.6315 22.198 12.5755 21.832 11.7955 21.1C11.0275 20.356 10.6435 19.36 10.6435 18.112H12.8935C12.8935 18.772 13.0795 19.288 13.4515 19.66C13.8235 20.032 14.3275 20.218 14.9635 20.218C15.5995 20.218 16.1035 20.038 16.4755 19.678C16.8475 19.306 17.0335 18.79 17.0335 18.13V10.948H13.9735V8.86H19.2835V18.13C19.2835 19.39 18.8935 20.386 18.1135 21.118C17.3455 21.838 16.2955 22.198 14.9635 22.198ZM22.3185 23.998V21.91H23.2365C23.6565 21.91 23.9925 21.802 24.2445 21.586C24.4965 21.358 24.6105 21.046 24.5865 20.65L24.4065 17.842C24.3585 17.122 24.5685 16.546 25.0365 16.114C25.5165 15.67 26.1705 15.448 26.9985 15.448V15.574C26.1705 15.574 25.5165 15.358 25.0365 14.926C24.5685 14.494 24.3585 13.924 24.4065 13.216L24.5865 10.408C24.6105 9.964 24.4965 9.64 24.2445 9.436C24.0045 9.232 23.6685 9.13 23.2365 9.13H22.3185V7.06H23.5605C24.2325 7.06 24.8205 7.186 25.3245 7.438C25.8405 7.69 26.2305 8.05 26.4945 8.518C26.7585 8.986 26.8725 9.544 26.8365 10.192L26.6565 13.018C26.6205 13.498 26.7225 13.864 26.9625 14.116C27.2025 14.368 27.5925 14.494 28.1325 14.494H30.2745V16.564H28.1325C27.5925 16.564 27.2025 16.69 26.9625 16.942C26.7225 17.194 26.6205 17.566 26.6565 18.058L26.8365 20.794C26.8725 21.454 26.7585 22.018 26.4945 22.486C26.2305 22.966 25.8405 23.338 25.3245 23.602C24.8205 23.866 24.2325 23.998 23.5605 23.998H22.3185Z" fill="black"/>
</g>
<defs>
<clipPath id="clip0_3_83">
<rect width="32" height="32" fill="white"/>
</clipPath>
</defs>
</svg>
